{
    "asset" : {
        "generator" : "Khronos glTF Blender I/O v1.0.5",
        "version" : "2.0"
    },
    "scene" : 0,
    "scenes" : [
        {
            "name" : "Scene",
            "nodes" : [
                0
            ]
        }
    ],
    "nodes" : [
        {
            "mesh" : 0,
            "name" : "Text",
            "scale" : [
                0.8746216297149658,
                0.8746216297149658,
                0.8746216297149658
            ],
            "translation" : [
                0.3584296703338623,
                0.3404703140258789,
                0.1855705976486206
            ]
        }
    ],
    "meshes" : [
        {
            "name" : "Text",
            "primitives" : [
                {
                    "attributes" : {
                        "POSITION" : 0,
                        "NORMAL" : 1
                    },
                    "indices" : 2
                }
            ]
        }
    ],
    "accessors" : [
        {
            "bufferView" : 0,
            "componentType" : 5126,
            "count" : 745,
            "max" : [
                1.0150001049041748,
                0.20000000298023224,
                0.3500000238418579
            ],
            "min" : [
                -1.0149999856948853,
                -0.20000000298023224,
                -0.3500000238418579
            ],
            "type" : "VEC3"
        },
        {
            "bufferView" : 1,
            "componentType" : 5126,
            "count" : 745,
            "type" : "VEC3"
        },
        {
            "bufferView" : 2,
            "componentType" : 5123,
            "count" : 1932,
            "type" : "SCALAR"
        }
    ],
    "bufferViews" : [
        {
            "buffer" : 0,
            "byteLength" : 8940,
            "byteOffset" : 0
        },
        {
            "buffer" : 0,
            "byteLength" : 8940,
            "byteOffset" : 8940
        },
        {
            "buffer" : 0,
            "byteLength" : 3864,
            "byteOffset" : 17880
        }
    ],
    "buffers" : [
        {
            "byteLength" : 21744,
            "uri" : "data:application/octet-stream;base64,"
        }
    ]
}
